HIERARCHY
ROOT Hips
{
  OFFSET -142.747 93.7572 -41.9823
  CHANNELS 6 Xposition Yposition Zposition Zrotation Xrotation Yrotation
  JOINT RightUpLeg
  {
    OFFSET -8.9458 -8.66707 0.101652
    CHANNELS 3 Zrotation Xrotation Yrotation
    JOINT RightLeg
    {
      OFFSET 0 -44.4227 1.3727
      CHANNELS 3 Zrotation Xrotation Yrotation
      JOINT RightFoot
      {
        OFFSET 0.253549 -42.0924 -1.46059
        CHANNELS 3 Zrotation Xrotation Yrotation
        JOINT RightToes
        {
          OFFSET 0.04 -4.41509 8.4991
          CHANNELS 3 Zrotation Xrotation Yrotation
          End Site
          {
            OFFSET -0.08 -0.137448 9.77979
          }
        }
      }
    }
  }
  JOINT Spine
  {
    OFFSET 0 11.8905 0
    CHANNELS 3 Zrotation Xrotation Yrotation
    JOINT Spine1
    {
      OFFSET 0 25.6574 0.127663
      CHANNELS 3 Zrotation Xrotation Yrotation
      JOINT HEad
      {
        OFFSET 0 8.73416 0.011341
        CHANNELS 3 Zrotation Xrotation Yrotation
        End Site
        {
          OFFSET -0.29 12.7742 2.51395
        }
      }
      JOINT LeftShoulder1
      {
        OFFSET 8.99 -0.362252 -0.22
        CHANNELS 3 Zrotation Xrotation Yrotation
        JOINT LeftArm
        {
          OFFSET 10.2827 -0.00338 0.322123
          CHANNELS 3 Zrotation Xrotation Yrotation
          JOINT LeftForeArm
          {
            OFFSET 32.7669 0.099144 -1.42434
            CHANNELS 3 Zrotation Xrotation Yrotation
            JOINT LeftHand
            {
              OFFSET 27.5643 0.085362 1.02216
              CHANNELS 3 Zrotation Xrotation Yrotation
              End Site
              {
                OFFSET 16.7443 -0.6 1.50291
              }
            }
          }
        }
      }
      JOINT RightShoulder
      {
        OFFSET -8.99 -0.362252 -0.22
        CHANNELS 3 Zrotation Xrotation Yrotation
        JOINT RightArm
        {
          OFFSET -10.2827 -0.00338 0.322123
          CHANNELS 3 Zrotation Xrotation Yrotation
          JOINT RightForeArm
          {
            OFFSET -32.8971 0.099144 -1.42434
            CHANNELS 3 Zrotation Xrotation Yrotation
            JOINT RightHand
            {
              OFFSET -27.4921 0.085362 1.02216
              CHANNELS 3 Zrotation Xrotation Yrotation
              End Site
              {
                OFFSET -16.6312 -0.6 1.50291
              }
            }
          }
        }
      }
    }
  }
  JOINT LeftUpLeg
  {
    OFFSET 8.9458 -8.66707 0.101652
    CHANNELS 3 Zrotation Xrotation Yrotation
    JOINT LeftLeg
    {
      OFFSET 0 -44.4227 1.3727
      CHANNELS 3 Zrotation Xrotation Yrotation
      JOINT LeftFoot
      {
        OFFSET -0.253549 -42.0924 -1.46059
        CHANNELS 3 Zrotation Xrotation Yrotation
        JOINT LeftToes
        {
          OFFSET -0.04 -4.41509 8.4991
          CHANNELS 3 Zrotation Xrotation Yrotation
          End Site
          {
            OFFSET 0.08 -0.047448 9.77979
          }
        }
      }
    }
  }
}
MOTION
Frames:	12
Frame Time:	0.0166667
-109.354 87.4937 -37.5872 8.53922 -14.0728 30.9133 -14.2522 18.6543 8.48472 14.9504 37.4913 -24.8483 1.46348 -4.28409 -0.19286 -21.8397 -21.1601 -12.8483 -1.26396 12.0604 10.6314 -7.50949 23.7263 22.6163 6.44793 -15.006 -27.0446 -1.59028e-015 5.56597e-015 -0 -60.9042 2.28154 -31.3093 6.22167 20.3852 -114.567 13.1532 8.40574 -9.48528 -20.4488 -2.92525 20.4897 14.8889 -19.4051 56.2534 -21.744 -32.4643 8.83094 42.388 -7.97355 -47.2551 15.5087 -19.6824 0.91796 -3.5381 25.9526 -13.5355 -14.0932 14.8173 2.65863 -4.59478 -14.995 -9.33141 
-109.11 87.7626 -37.2947 8.38618 -13.7639 31.5877 -13.2843 19.4322 8.66815 13.2993 36.2613 -23.8478 1.82948 -3.98668 -0.206503 -21.3972 -20.8471 -12.9255 -1.07603 11.9433 10.5278 -7.62455 23.5656 22.5267 8.15159 -15.3665 -26.0398 -8.82781e-032 1.59028e-015 3.18055e-015 -60.3461 2.95521 -32.9674 3.94589 21.5249 -112.609 12.5635 8.29909 -11.1929 -18.4195 -2.61592 21.2782 22.0925 -24.1764 58.4 -25.9567 -26.765 9.80865 40.2734 -4.10257 -40.4761 15.1981 -19.6775 0.24948 -3.5714 25.4258 -13.5306 -13.7407 14.3605 2.53699 -4.44428 -14.6889 -8.71293 
-108.858 87.9846 -37.0921 8.35765 -13.7776 32.5524 -12.0863 19.9729 9.40614 11.8179 35.9127 -23.615 3.0551 -2.31791 -0.279552 -22.2045 -21.417 -13.2691 -0.764542 12.0152 9.70327 -7.54075 23.8886 21.0079 9.29935 -15.9175 -23.5234 0 4.77083e-015 -0 -60.0362 1.19065 -35.5206 1.50667 23.8435 -110.203 12.9106 8.18352 -11.827 -15.0302 -1.97 21.8563 32.3115 -30.4859 62.5514 -20.749 -19.1201 21.9952 38.3524 1.78211 -26.9943 14.7628 -19.565 0.316929 -3.0373 25.0706 -14.6329 -13.5081 14.4219 2.4988 -4.52196 -14.9323 -8.57282 
-108.536 88.2249 -37.129 8.21942 -14.2236 32.8547 -11.3105 20.0987 10.5102 10.8961 36.1303 -23.431 4.90257 0.330782 -0.461734 -24.0278 -22.682 -13.5939 -0.458635 12.299 8.65915 -7.28893 24.6414 19.0294 9.63853 -16.2996 -20.4346 -1.59028e-015 1.59028e-015 3.18055e-015 -60.4758 -2.22212 -38.5979 -0.112392 26.5088 -108.004 14.2152 8.09391 -11.0238 -11.082 -1.18161 22.6163 47.9398 -38.4102 70.6687 -11.5591 -4.35162 38.3452 36.6858 5.40475 -17.653 14.532 -19.1141 0.866555 -2.13461 24.8939 -15.8639 -13.2316 14.5829 2.46272 -4.64633 -15.3076 -8.43997 
-108.099 88.5438 -37.4482 7.70689 -15.0231 31.8654 -11.3796 19.6903 11.6253 10.7043 36.3941 -22.5639 6.76958 3.64562 -0.76548 -26.5404 -24.3897 -13.9417 -0.237358 12.6992 7.79819 -6.90041 25.5553 17.3544 9.33408 -16.523 -17.4521 1.59028e-015 0 3.18055e-015 -61.9329 -6.27906 -41.8673 -0.669437 29.0102 -106.21 15.837 8.11655 -9.20837 -6.61434 -0.227454 23.5142 74.3578 -46.3486 87.4478 3.10215 22.6564 54.2306 28.5712 5.65866 -20.5841 14.788 -18.2709 1.27659 -1.28887 24.7701 -16.0484 -12.7827 14.5259 2.36901 -4.68825 -15.526 -7.9424 
-107.52 88.9423 -37.9913 6.66249 -15.9487 29.4355 -12.2438 18.6733 12.3744 10.9452 36.4243 -20.5365 8.245 7.21282 -1.14303 -29.2485 -26.1847 -14.3337 -0.125926 13.0837 7.28832 -6.40593 26.3424 16.2833 8.77098 -16.7602 -14.6731 0 0 -3.18055e-015 -64.199 -10.2476 -44.967 -0.880798 31.1653 -104.525 16.9602 8.2346 -7.44273 -1.44968 0.958215 24.3112 108.866 -48.3032 110.948 29.4115 58.0193 54.1238 15.4305 6.12357 -30.7057 15.6021 -17.1673 1.02553 -0.869139 24.6681 -14.4286 -12.129 14.168 2.20613 -4.6455 -15.5864 -7.05397 
-106.802 89.3685 -38.6596 5.1237 -16.7623 25.7889 -13.4828 17.0602 12.4784 10.9724 36.3161 -17.1547 9.45209 10.5764 -1.55366 -31.701 -27.7838 -14.5856 -0.102914 13.3743 7.0817 -5.82239 26.8719 15.7187 8.23525 -17.1349 -11.832 3.18055e-015 -6.36111e-015 -0 -66.6619 -13.7847 -47.4509 -2.09731 32.9382 -102.286 17.0424 8.2624 -7.18917 4.33481 2.35178 24.8736 99.3094 -48.1315 99.6047 32.5803 60.8358 68.2968 12.7326 4.94075 -44.8986 16.8324 -15.9867 0.00855197 -0.95837 24.7013 -11.0202 -11.4055 13.4791 2.00352 -4.52127 -15.4591 -5.90377 
-105.978 89.7584 -39.3728 3.29894 -17.3392 21.3272 -14.6601 14.972 11.9782 10.3075 36.2833 -12.6629 10.7928 13.4647 -2.01939 -33.7592 -29.1486 -14.4733 -0.11116 13.5821 7.02031 -5.15981 27.2119 15.3824 7.78458 -17.6585 -8.68048 1.59028e-015 4.77083e-015 -3.18055e-015 -68.6036 -16.8135 -48.8541 -5.74659 34.2183 -98.766 15.7931 8.04752 -9.76737 10.4209 3.84494 25.1158 84.6898 -46.3423 84.1693 27.5495 61.1458 86.2151 9.49278 5.02394 -55.572 18.2313 -14.8358 -1.4587 -1.38552 25.0115 -6.48877 -10.8652 12.406 1.80865 -4.26543 -14.9448 -4.56784 
-105.097 90.0686 -40.0948 1.42324 -17.6926 16.4487 -15.568 12.5891 11.2214 8.97217 36.3902 -7.70763 12.5268 15.8653 -2.58665 -35.5377 -30.4063 -13.8642 -0.0723552 13.7661 6.93043 -4.42386 27.5215 14.9868 7.32897 -18.2169 -5.06459 3.18055e-015 -1.59028e-015 3.18055e-015 -69.5397 -19.4312 -48.8456 -12.5583 34.6977 -93.8209 12.9487 7.80504 -15.2601 16.4117 5.27294 24.9113 71.1746 -42.6302 69.8296 20.7172 59.1157 102.103 6.57513 5.94849 -61.5311 19.5988 -13.7248 -2.9054 -1.95594 25.6431 -1.62155 -10.6719 11.0421 1.65658 -3.8823 -13.975 -3.1563 
-104.204 90.2778 -40.829 -0.380835 -17.8963 11.4441 -16.1601 10.0382 10.5101 7.28629 36.6374 -2.96612 14.6724 17.894 -3.2774 -37.1635 -31.683 -12.6867 0.0542909 13.9745 6.67982 -3.58862 27.9145 14.2888 6.71043 -18.6321 -0.831705 0 3.18055e-015 -0 -69.4676 -21.9445 -47.3599 -21.1962 34.2013 -88.7991 8.81068 8.05261 -21.645 21.845 6.44623 24.2265 62.0501 -39.1914 59.2311 17.055 56.7547 112.098 4.56087 6.97123 -62.7492 20.9005 -12.6476 -4.03676 -2.64967 26.5147 3.16995 -10.7679 9.71796 1.55657 -3.49608 -12.8667 -1.93819 
-103.345 90.3816 -41.5922 -2.12866 -18.0008 6.50254 -16.3797 7.37371 9.88182 5.52358 37.0877 1.12824 17.1279 19.6265 -4.08094 -38.6143 -32.9928 -10.9491 0.248594 14.2118 6.19398 -2.57736 28.3964 13.0974 5.79552 -18.7715 4.13527 -3.53113e-031 -3.18055e-015 -6.36111e-015 -68.8661 -24.9414 -44.6514 -28.2872 33.5187 -85.9861 5.2537 8.67288 -26.2959 26.1951 7.23191 23.2585 56.4034 -37.4304 51.7783 16.4109 55.2075 116.982 3.76351 7.5329 -60.4088 22.264 -11.6332 -4.85415 -3.61668 27.469 7.90136 -10.931 8.85068 1.5044 -3.27481 -12.1851 -1.26009 
-102.552 90.3843 -42.3895 -3.9013 -17.9993 1.77533 -16.129 4.63281 9.28015 3.90068 37.8834 4.27477 19.6651 20.9625 -4.91925 -39.6513 -34.1509 -8.8454 0.481059 14.4411 5.44472 -1.29486 28.8824 11.2982 4.60689 -18.5552 9.77798 3.53113e-031 -3.18055e-015 6.36111e-015 -68.3192 -29.2086 -41.2192 -31.3907 33.9298 -86.3832 4.43127 8.82532 -28.3323 29.0668 7.62517 22.3304 52.0725 -36.1959 46.3094 16.451 53.6619 119.437 4.07206 7.56194 -56.7466 23.8489 -10.76 -5.45271 -4.94767 28.3929 12.5873 -10.9759 8.65846 1.49375 -3.31066 -12.312 -1.26395 
